<svg width="16" height="15" viewBox="0 0 16 15" fill="none" xmlns="http://www.w3.org/2000/svg">
<path opacity="0.3" d="M15.9949 14.5557C15.9636 14.7874 15.7611 14.9727 15.5159 14.9945C15.4732 15 15.4276 14.9973 15.3819 14.9973H12.1345V13.9696V5.81937V4.7999H14.2272C14.9828 4.7999 15.4675 5.26057 15.4675 5.98292V13.9615C15.5416 13.9833 15.6072 13.9942 15.6671 14.016C15.8866 14.1005 16.0292 14.3349 15.9949 14.5557ZM11.1993 4.7999H11.2136V14.9973C7.68098 14.9973 4.15125 14.9973 0.618671 15C0.359216 15 0.159636 14.9209 0.0484406 14.692C-0.108373 14.3676 0.133975 13.9969 0.510327 13.9805C0.687099 13.9724 0.86387 13.9778 1.06915 13.9778V4.2929C1.06915 3.68503 1.3058 3.3443 1.89029 3.11533C4.44207 2.1095 6.9967 1.10366 9.55133 0.100552C10.3924 -0.229275 11.1993 0.285909 11.1993 1.15545C11.2022 2.30848 11.1993 3.46151 11.1993 4.61182V4.7999ZM8.00031 7.86647C8.00316 7.56936 7.76366 7.35129 7.42722 7.34856H4.84693C4.50764 7.34856 4.26815 7.5639 4.26815 7.8583C4.26815 8.15541 4.5105 8.36803 4.84693 8.36803C5.2746 8.37075 5.70228 8.36803 6.12995 8.36803C6.56333 8.36803 6.9967 8.37075 7.43008 8.36803C7.75796 8.36803 7.99746 8.15541 8.00031 7.86647ZM7.42437 9.39022C6.9967 9.38749 6.56903 9.38749 6.14421 9.38749C5.71083 9.38749 5.27746 9.38749 4.84408 9.39022C4.50479 9.39022 4.2653 9.60556 4.26815 9.90268C4.271 10.1916 4.50764 10.407 4.83267 10.407C5.69943 10.4097 6.56618 10.4097 7.43293 10.407C7.76081 10.407 7.99746 10.1916 8.00031 9.90268C8.00316 9.60829 7.76081 9.39022 7.42437 9.39022ZM8.00031 5.82209C8.00316 5.52225 7.75796 5.30963 7.40727 5.30963H4.85834C4.50764 5.30963 4.2653 5.51952 4.26815 5.82209C4.271 6.12194 4.51335 6.3291 4.86689 6.3291H7.40156C7.75511 6.3291 7.99746 6.12194 8.00031 5.82209ZM4.26815 11.9334C4.2653 12.2278 4.50479 12.4486 4.84123 12.4486H7.42437C7.76081 12.4486 8.00316 12.2305 8.00031 11.9362C7.99746 11.6418 7.75796 11.4291 7.41582 11.4291C6.99385 11.4264 6.57188 11.4291 6.14991 11.4291C5.71653 11.4291 5.28601 11.4264 4.85263 11.4291C4.51049 11.4291 4.271 11.639 4.26815 11.9334Z" fill="#1D211F"/>
</svg>
