<svg width="15" height="15" viewBox="0 0 15 15" fill="none" xmlns="http://www.w3.org/2000/svg">
<g opacity="0.3">
<path d="M0.000976562 4.10091C0.0572266 3.92547 0.0963337 3.74225 0.172941 3.57618C0.518744 2.82672 1.31883 2.42547 2.13205 2.58163C2.90857 2.73082 3.49812 3.4069 3.55357 4.21261C3.55812 4.28065 3.55999 4.34922 3.55999 4.41752C3.56026 7.56565 3.56107 10.7138 3.55812 13.8619C3.55812 14.0065 3.54607 14.1573 3.50428 14.2945C3.37999 14.7051 2.9908 14.9904 2.55714 14.9955C2.03991 15.0014 1.52241 15.0014 1.00517 14.9957C0.563744 14.9909 0.187405 14.7035 0.0505301 14.2824C0.035798 14.2372 0.0178516 14.193 0.00124442 14.1482C0.000976563 10.7989 0.000976562 7.44993 0.000976562 4.10091Z" fill="#1D211F"/>
<path d="M12.9187 0C13.1721 0.117054 13.246 0.317946 13.245 0.589821C13.2375 2.65848 13.241 4.72741 13.241 6.79634C13.241 6.85446 13.241 6.91259 13.241 6.98089C10.8926 6.98089 8.55345 6.98089 6.19658 6.98089C6.19658 6.91554 6.19658 6.85821 6.19658 6.80089C6.19658 4.72232 6.19926 2.64375 6.19337 0.565179C6.19256 0.294911 6.27613 0.102054 6.53301 0C8.66167 0 10.7901 0 12.9187 0ZM9.6822 1.75741C9.22872 1.75741 8.77497 1.75634 8.32149 1.75768C8.03676 1.75848 7.8431 1.93929 7.84417 2.19857C7.84524 2.45812 8.0381 2.63545 8.32524 2.63571C9.21774 2.63679 10.1102 2.63679 11.0027 2.63571C11.2856 2.63545 11.4838 2.45116 11.4827 2.19482C11.4817 1.93902 11.284 1.75848 10.999 1.75768C10.56 1.75661 10.1212 1.75768 9.6822 1.75741ZM9.65542 4.39393C10.0993 4.39393 10.5431 4.39446 10.9869 4.39366C11.2832 4.39313 11.483 4.215 11.4827 3.95384C11.4825 3.69295 11.2829 3.51536 10.9859 3.51536C10.103 3.51482 9.22042 3.51482 8.33756 3.51536C8.03917 3.51562 7.8439 3.6908 7.84444 3.95491C7.8447 4.21902 8.0397 4.39313 8.33863 4.39366C8.77738 4.39446 9.2164 4.39393 9.65542 4.39393ZM9.65595 6.15134C10.1046 6.15134 10.5533 6.15241 11.0019 6.15107C11.2851 6.15027 11.4833 5.96705 11.4825 5.71071C11.4817 5.45464 11.284 5.2733 10.9995 5.27304C10.107 5.27196 9.21453 5.27196 8.32203 5.27304C8.03703 5.2733 7.84363 5.45411 7.84417 5.71339C7.8447 5.97241 8.03837 6.15027 8.3247 6.15107C8.76828 6.15214 9.21211 6.15134 9.65595 6.15134Z" fill="#1D211F"/>
<path d="M4.43945 4.31006C4.74026 4.31006 5.01802 4.31006 5.31481 4.31006C5.31481 5.49184 5.31481 6.67015 5.31481 7.8589C8.25535 7.8589 11.1766 7.8589 14.1139 7.8589C14.1139 6.68113 14.1139 5.50309 14.1139 4.3122C14.2982 4.3122 14.4688 4.2972 14.6354 4.31595C14.8369 4.33872 14.9823 4.51497 14.9978 4.71854C15.0016 4.76702 14.9995 4.81604 14.9995 4.86506C14.9995 8.05765 14.9995 11.25 14.9995 14.4426C14.9995 14.8441 14.8452 14.9976 14.4415 14.9976C11.2928 14.9976 8.14445 14.9976 4.99579 14.9976C4.59294 14.9976 4.43972 14.8446 4.43972 14.4404C4.43945 11.1209 4.43972 7.80157 4.43972 4.48202C4.43945 4.42898 4.43945 4.37595 4.43945 4.31006ZM12.3586 9.63586C12.5049 9.63586 12.6511 9.63934 12.7971 9.63506C13.0537 9.62756 13.2455 9.43229 13.241 9.188C13.2367 8.948 13.0478 8.76184 12.7961 8.75836C12.5038 8.75434 12.2113 8.75434 11.9191 8.75836C11.6665 8.76184 11.4809 8.94693 11.4777 9.18881C11.4745 9.43738 11.6609 9.62782 11.9199 9.63506C12.0664 9.63934 12.2127 9.63586 12.3586 9.63586ZM12.3659 10.5152C12.2148 10.5152 12.0637 10.512 11.9129 10.516C11.6684 10.5225 11.4849 10.7033 11.4782 10.9387C11.4715 11.1822 11.6499 11.3839 11.8977 11.3911C12.2044 11.3997 12.5116 11.3994 12.8183 11.3911C13.0578 11.3847 13.241 11.1859 13.241 10.954C13.2412 10.714 13.0532 10.5233 12.8041 10.5163C12.6581 10.5118 12.5119 10.5152 12.3659 10.5152ZM6.20624 9.20059C6.20811 9.44247 6.40472 9.63693 6.64579 9.63532C6.88151 9.63399 7.0832 9.42773 7.07999 9.19122C7.07677 8.95202 6.87561 8.75595 6.63642 8.75809C6.39481 8.7605 6.20436 8.95631 6.20624 9.20059ZM7.96392 9.18881C7.96097 9.43256 8.14954 9.62916 8.39195 9.63506C8.62686 9.64068 8.83285 9.44086 8.83767 9.20273C8.84249 8.96541 8.64481 8.76211 8.40561 8.75836C8.1632 8.75461 7.96686 8.94613 7.96392 9.18881ZM9.72133 9.20032C9.7232 9.4422 9.91981 9.63666 10.1609 9.63506C10.3966 9.63372 10.5983 9.42747 10.5951 9.19122C10.5919 8.95229 10.3907 8.75595 10.1515 8.75809C9.91017 8.7605 9.71945 8.95631 9.72133 9.20032ZM6.20624 10.9465C6.20329 11.1902 6.3932 11.3884 6.63427 11.3927C6.87106 11.397 7.07517 11.1988 7.07999 10.9604C7.08481 10.7231 6.88713 10.5198 6.64794 10.516C6.40552 10.5123 6.20919 10.7035 6.20624 10.9465ZM8.40481 10.516C8.1624 10.5126 7.9666 10.7043 7.96365 10.9473C7.96097 11.191 8.15142 11.389 8.39249 11.3927C8.62927 11.3965 8.83338 11.198 8.83767 10.9596C8.84195 10.722 8.64401 10.5193 8.40481 10.516ZM10.1595 10.5158C9.91713 10.5139 9.72293 10.7068 9.7216 10.9502C9.72026 11.1934 9.91285 11.3909 10.1534 11.3927C10.3902 11.3946 10.5932 11.1943 10.5953 10.9564C10.5975 10.7185 10.3985 10.5176 10.1595 10.5158ZM7.96392 12.7063C7.96177 12.9501 8.15329 13.1475 8.3941 13.1504C8.63142 13.1531 8.83445 12.9543 8.83767 12.7159C8.84115 12.4784 8.6424 12.2761 8.40347 12.2737C8.16079 12.2708 7.96606 12.4628 7.96392 12.7063ZM9.72133 12.7052C9.71892 12.949 9.90963 13.1467 10.1507 13.1501C10.3878 13.1536 10.5911 12.9551 10.5953 12.7165C10.5994 12.4792 10.4011 12.2764 10.162 12.2732C9.91927 12.2702 9.72374 12.462 9.72133 12.7052ZM6.20624 12.7074C6.20463 12.9509 6.39695 13.1483 6.63776 13.1501C6.87508 13.1523 7.07758 12.9525 7.07999 12.7143C7.0824 12.4762 6.88419 12.2753 6.64472 12.2734C6.40204 12.2716 6.20785 12.4639 6.20624 12.7074Z" fill="#1D211F"/>
</g>
</svg>
