<svg width="222" height="62" viewBox="0 0 222 62" fill="none" xmlns="http://www.w3.org/2000/svg">
<path d="M27.939 35.625L42.936 11.228H34.748L29.959 26.231C28.429 31.253 26.902 37.202 25.669 42.423H25.452C24.445 37.137 23.053 31.47 21.628 26.3L17.23 11.229H3.636L0.75 56.324H10.183L11.024 39.21C11.296 33.593 11.547 26.632 11.77 20.498H11.911C13.028 26.442 14.526 32.847 15.981 38.158L20.84 55.585H28.661L37.439 36.107L27.939 35.625Z" fill="#00451C"/>
<path d="M53.457 11.228H52.423H46.727L38.873 28.769L46.496 29.114L48.055 25.132C48.278 25.978 48.501 26.803 48.723 27.566L51.532 37.15H43.857L39.37 44.746H53.043L56.511 56.325H67.496L53.457 11.228Z" fill="#006439"/>
<path d="M37.5791 29.56L50.7371 0.172974L29.4261 34.842L38.7361 35.315L27.0081 61.339H28.2161L47.4501 30.068L37.5791 29.56Z" fill="#00A69C"/>
<path d="M75.525 33.043C75.525 35.096 77.197 36.769 79.251 36.769H82.977V34.55H79.25V32.48H85.046V38.838H79.25C76.054 38.838 73.454 36.238 73.454 33.042C73.454 29.847 76.054 27.246 79.25 27.246H85.046V29.316H79.25C77.197 29.318 75.525 30.99 75.525 33.043Z" fill="#1D211F"/>
<path d="M96.055 36.785L97.115 38.855H94.797L93.737 36.785L92.628 34.616L92.578 34.517C92.214 33.921 91.568 33.523 90.823 33.523H88.753V38.855H86.683V27.264H94.002C94.863 27.264 95.641 27.612 96.204 28.175C96.767 28.754 97.115 29.533 97.115 30.393C97.115 31.652 96.37 32.744 95.294 33.241C95.012 33.373 94.714 33.456 94.4 33.489L96.055 36.785ZM94.002 31.454C94.151 31.454 94.3 31.421 94.432 31.355C94.813 31.189 95.061 30.808 95.061 30.394C95.061 30.013 94.862 29.748 94.746 29.632C94.614 29.5 94.365 29.334 94.001 29.334H88.752V31.47L94.002 31.454Z" fill="#1D211F"/>
<path d="M100.855 30.378V31.454H108.307V33.524H100.855V35.71C100.855 36.29 101.335 36.77 101.915 36.77H110.377V38.84H101.915C100.193 38.84 98.802 37.433 98.802 35.711V30.379C98.802 28.657 100.193 27.249 101.915 27.249H110.377V29.319H101.915C101.335 29.318 100.855 29.798 100.855 30.378Z" fill="#1D211F"/>
<path d="M114.1 30.378V31.454H121.552V33.524H114.1V35.71C114.1 36.29 114.58 36.77 115.16 36.77H123.622V38.84H115.16C113.438 38.84 112.047 37.433 112.047 35.711V30.379C112.047 28.657 113.438 27.249 115.16 27.249H123.622V29.319H115.16C114.58 29.318 114.1 29.798 114.1 30.378Z" fill="#1D211F"/>
<path d="M136.865 27.264V38.855L134.795 37.265L127.343 31.519V38.854H125.273V27.297L127.343 28.887L134.795 34.633V27.248L136.865 27.264Z" fill="#1D211F"/>
<path d="M147.327 30.378V31.454H154.779V33.524H147.327V35.71C147.327 36.29 147.807 36.77 148.387 36.77H156.849V38.84H148.387C146.665 38.84 145.274 37.433 145.274 35.711V30.379C145.274 28.657 146.665 27.249 148.387 27.249H156.849V29.319H148.387C147.807 29.318 147.327 29.798 147.327 30.378Z" fill="#1D211F"/>
<path d="M170.092 27.264V38.855L168.022 37.265L160.57 31.519V38.854H158.5V27.297L160.57 28.887L168.022 34.633V27.248L170.092 27.264Z" fill="#1D211F"/>
<path d="M173.816 30.378V31.454H181.268V33.524H173.816V35.71C173.816 36.29 174.296 36.77 174.876 36.77H183.338V38.84H174.876C173.154 38.84 171.763 37.433 171.763 35.711V30.379C171.763 28.657 173.154 27.249 174.876 27.249H183.338V29.319H174.876C174.296 29.318 173.816 29.798 173.816 30.378Z" fill="#1D211F"/>
<path d="M194.346 36.785L195.406 38.855H193.088L192.028 36.785L190.919 34.616L190.869 34.517C190.505 33.921 189.859 33.523 189.114 33.523H187.044V38.855H184.974V27.264H192.293C193.154 27.264 193.932 27.612 194.495 28.175C195.058 28.754 195.406 29.533 195.406 30.393C195.406 31.652 194.661 32.744 193.585 33.241C193.303 33.373 193.005 33.456 192.691 33.489L194.346 36.785ZM192.293 31.454C192.442 31.454 192.591 31.421 192.723 31.355C193.104 31.189 193.352 30.808 193.352 30.394C193.352 30.013 193.153 29.748 193.037 29.632C192.905 29.5 192.656 29.334 192.292 29.334H187.043V31.47L192.293 31.454Z" fill="#1D211F"/>
<path d="M199.146 33.043C199.146 35.096 200.818 36.769 202.872 36.769H206.598V34.55H202.872V32.48H208.668V38.838H202.872C199.676 38.838 197.076 36.238 197.076 33.042C197.076 29.847 199.676 27.246 202.872 27.246H208.668V29.316H202.872C200.818 29.318 199.146 30.99 199.146 33.043Z" fill="#1D211F"/>
<path d="M209.659 38.839H209.693L209.659 38.872V38.839ZM221.25 27.231L216.762 33.043L216.514 33.358V38.822H214.444V33.391L214.162 33.043L209.675 27.231H212.291L215.47 31.354L218.649 27.231H221.25ZM221.233 38.839H221.25V38.872L221.233 38.839Z" fill="#1D211F"/>
<path d="M83.0091 53.545V55.615H77.1311C76.5511 55.615 76.0051 55.483 75.5081 55.234C74.7791 54.87 74.1831 54.274 73.8361 53.545C73.5871 53.048 73.4551 52.502 73.4551 51.922V44.024H75.5251V52.121C75.6241 52.849 76.2041 53.429 76.9331 53.528L83.0091 53.545Z" fill="#1D211F"/>
<path d="M84.6631 55.598V44.007H86.7331V55.598H84.6631Z" fill="#1D211F"/>
<path d="M99.979 44.007V55.598H97.909V48.213L95.872 49.77L94.183 51.078L92.494 49.77L90.457 48.213V55.598H88.387V44.007L90.457 45.597L94.183 48.462L97.909 45.597L99.979 44.007Z" fill="#1D211F"/>
<path d="M101.633 55.598V44.007H103.703V55.598H101.633Z" fill="#1D211F"/>
<path d="M116.932 44.024V46.094H112.18V55.615H110.11V46.094H105.357V44.024H116.932Z" fill="#1D211F"/>
<path d="M120.672 47.137V48.213H128.124V50.283H120.672V52.469C120.672 53.049 121.152 53.529 121.732 53.529H130.194V55.599H121.732C120.01 55.599 118.619 54.192 118.619 52.47V47.138C118.619 45.416 120.01 44.009 121.732 44.009H130.194V46.079H121.732C121.152 46.077 120.672 46.557 120.672 47.137Z" fill="#1D211F"/>
<path d="M137.626 44.024C140.822 44.024 143.422 46.607 143.422 49.803C143.422 51.227 142.909 52.535 142.048 53.546C141.949 53.662 141.833 53.777 141.717 53.894C140.674 54.954 139.233 55.599 137.644 55.599H131.848V44.007L137.626 44.024ZM133.9 53.545H137.625C139.678 53.545 141.351 51.872 141.351 49.819C141.351 47.766 139.679 46.093 137.625 46.093H133.9V53.545Z" fill="#1D211F"/>
</svg>
